<?xml version="1.0" standalone="no"?>
<svg viewBox="0 0 200 200" xmlns="http://www.w3.org/2000/svg">
  <path fill="#E05785" d="M42.3,-74.2C53.9,-66.5,61.8,-53.4,60.9,-40.1C60.1,-26.8,50.4,-13.4,50.7,0.2C51,13.8,61.4,27.6,61.9,40.3C62.5,53,53.3,64.7,41.3,72.9C29.4,81.1,14.7,85.8,3.9,79C-6.8,72.2,-13.7,53.8,-25.6,45.6C-37.5,37.4,-54.4,39.3,-66.1,33.4C-77.7,27.5,-84.1,13.7,-78.4,3.3C-72.7,-7.2,-54.9,-14.3,-46.6,-26C-38.3,-37.8,-39.5,-54.1,-33.3,-64.9C-27.1,-75.7,-13.5,-81.1,0.9,-82.7C15.3,-84.2,30.7,-81.9,42.3,-74.2Z" transform="translate(100 100)" />
</svg>
